<svg id="color" xmlns="http://www.w3.org/2000/svg" viewBox="0 0 332.66 347.46"><defs><style>.cls-1{fill:#fff;}.cls-2{fill:#05a0a8;}</style></defs><title>V_primary_active</title><g id="v_toonrender02"><path class="cls-1" d="M646,416.3c.53-1.86,1.13-3.71,1.6-5.6Q665.1,340.35,682.44,270c1-4,2.43-5.34,6.56-5.48,33.31-1.15,66.61-2.71,99.93-3.69,4-.12,8.14,2.32,12,4,4.1,1.74,10,3.08,11.41,6.24s-1.81,8.33-3.26,12.53q-51,148.17-102.14,296.3a16.67,16.67,0,0,1-4.69,6.69q-11.46,10.05-23.41,19.54a10,10,0,0,1-6.55,2.15c-29-3.32-57.9-6.93-86.85-10.32-3.34-.39-4.76-1.86-5.74-5Q530.49,435.7,481.07,278.56c-1.77-5.64-1.73-5.63,4.38-5.88,27-1.08,53.95-2.31,80.94-3.13,4.72-.14,9.51,1.36,14.24,2.23,8,1.48,16,3.33,24.08,4.5,4,.58,5.45,2.42,6.37,6.15q15.9,64.29,32.1,128.5c.46,1.83,1.1,3.62,1.66,5.42Z" transform="translate(-480.06 -260.79)"/><path class="cls-2" d="M627.81,521.53c1.65-11.15,2.64-22.45,5.06-33.44q12.93-58.52,26.73-116.85c7.85-33.05,16.4-65.93,24.38-99,1.09-4.49,3.16-5.81,7.46-6,31.14-1,62.27-2.28,93.41-3.43,5.27-.19,5.35,0,3.55,5.33L705.34,515.62c-9.55,28.43-19.18,56.84-28.55,85.34-1.43,4.34-3.36,5.55-7.88,5q-40.16-5.18-80.39-9.77c-4.27-.49-6.25-2.19-7.54-6.32Q532.81,436.06,484.4,282.38a17.92,17.92,0,0,0-.56-1.92c-1.75-3.95-.77-5.74,3.82-5.84,10.16-.22,20.31-.82,30.47-1.22,14.65-.58,29.31-1,44-1.74,3.8-.19,5.7.78,6.67,4.71,17.12,69.4,34.49,138.74,51.48,208.17,2.61,10.65,3.62,21.68,5.4,32.53.25,1.54.62,3.06.94,4.6Z" transform="translate(-480.06 -260.79)"/></g></svg>