<?xml version="1.0" encoding="utf-8"?>
<!-- Generator: Adobe Illustrator 18.1.0, SVG Export Plug-In . SVG Version: 6.00 Build 0)  -->
<!DOCTYPE svg PUBLIC "-//W3C//DTD SVG 1.1//EN" "http://www.w3.org/Graphics/SVG/1.1/DTD/svg11.dtd">
<svg version="1.1" id="Layer_1" xmlns="http://www.w3.org/2000/svg" xmlns:xlink="http://www.w3.org/1999/xlink" x="0px" y="0px"
	 viewBox="0 0 145 145" enable-background="new 0 0 145 145" xml:space="preserve">
<g>
	<path fill="none" d="M81.3,0H56.3c4.5,20.8,9.3,43.1,12.7,58.1L81.3,0z"/>
	<path fill="#FFFFFF" d="M99.1,121.3c0,0-39.3-4.7-43.3-5.4c-4-0.7-4.2-4.9-4.2-4.9L16.7,0H2.3l36.3,114.7l63.3,7.4l0.7-2.1
		C101.2,122.1,99.1,121.3,99.1,121.3z"/>
	<path fill="#FFFFFF" d="M73.2,75.7c1.2,2.9,3.8,2.9,5-0.6c1.3-4,9.7-41,17.3-75.1H81.3L69,58.1C71.2,68,72.7,74.6,73.2,75.7z"/>
	<linearGradient id="SVGID_1_" gradientUnits="userSpaceOnUse" x1="18.3156" y1="54.7049" x2="179.0639" y2="-38.1032">
		<stop  offset="0" style="stop-color:#6E9FA8;stop-opacity:0.6497"/>
		<stop  offset="0.6333" style="stop-color:#51BEC5;stop-opacity:0.9866"/>
		<stop  offset="1" style="stop-color:#51BEC5"/>
	</linearGradient>
	<path fill="url(#SVGID_1_)" d="M68.9,58.3l0-0.2c-3.4-15-8.2-37.3-12.7-58.1h-0.1L68.9,58.3z"/>
	<linearGradient id="SVGID_2_" gradientUnits="userSpaceOnUse" x1="46.8378" y1="104.1067" x2="207.5861" y2="11.2986">
		<stop  offset="0" style="stop-color:#6E9FA8;stop-opacity:0.6497"/>
		<stop  offset="0.6333" style="stop-color:#51BEC5;stop-opacity:0.9866"/>
		<stop  offset="1" style="stop-color:#51BEC5"/>
	</linearGradient>
	<path fill="url(#SVGID_2_)" d="M102.7,120c0.3-0.4,0.5-0.8,0.7-1.4c0.8-2.3,23.2-67.7,40.6-118.6h-0.3L102.7,120z"/>
	<path fill="#FFFFFF" d="M95.4,0c-7.6,34.1-16,71.1-17.3,75.1c-1.2,3.5-3.8,3.5-5,0.6c-0.4-1-2-7.7-4.2-17.6l0,0.2L56.2,0H16.7
		l34.9,111c0,0,0.2,4.2,4.2,4.9c4,0.7,43.3,5.4,43.3,5.4s2.2,0.7,3.6-1.3L143.8,0H95.4z"/>
	<linearGradient id="SVGID_3_" gradientUnits="userSpaceOnUse" x1="31.0336" y1="76.7331" x2="191.7819" y2="-16.075">
		<stop  offset="0" style="stop-color:#6E9FA8;stop-opacity:0.6497"/>
		<stop  offset="0.6333" style="stop-color:#51BEC5;stop-opacity:0.9866"/>
		<stop  offset="1" style="stop-color:#51BEC5"/>
	</linearGradient>
	<path fill="url(#SVGID_3_)" d="M95.4,0c-7.6,34.1-16,71.1-17.3,75.1c-1.2,3.5-3.8,3.5-5,0.6c-0.4-1-2-7.7-4.2-17.6l0,0.2L56.2,0
		H16.7l34.9,111c0,0,0.2,4.2,4.2,4.9c4,0.7,43.3,5.4,43.3,5.4s2.2,0.7,3.6-1.3L143.8,0H95.4z"/>
</g>
</svg>
